<?xml version="1.0" standalone="no"?>
<!DOCTYPE svg PUBLIC "-//W3C//DTD SVG 20010904//EN"
 "http://www.w3.org/TR/2001/REC-SVG-20010904/DTD/svg10.dtd">
<svg version="1.0" xmlns="http://www.w3.org/2000/svg"
 width="1200.000000pt" height="1200.000000pt" viewBox="0 0 1200.000000 1200.000000"
 preserveAspectRatio="xMidYMid meet">

<g transform="translate(0.000000,1200.000000) scale(0.100000,-0.100000)"
fill="#fff" stroke="none">
<path d="M3982 10345 c-171 -37 -335 -167 -410 -325 -48 -101 -62 -163 -62
-273 0 -128 39 -252 111 -352 18 -25 790 -797 1716 -1716 l1683 -1671 -1268
-1277 c-2111 -2125 -2102 -2115 -2145 -2197 -48 -94 -70 -180 -70 -284 -1
-207 96 -394 265 -507 113 -75 195 -98 348 -98 109 1 133 4 192 27 37 14 93
41 124 59 42 25 558 539 1958 1948 1045 1053 1919 1937 1942 1966 156 201 163
492 19 710 -29 43 -2948 2951 -3676 3662 -222 217 -255 245 -323 278 -129 62
-268 79 -404 50z"/>
</g>
</svg>
